<svg id="visual" viewBox="0 0 960 540" width="960" height="540" xmlns="http://www.w3.org/2000/svg" xmlns:xlink="http://www.w3.org/1999/xlink" version="1.1"><rect x="0" y="0" width="960" height="540" fill="#9a4b0a"></rect><path d="M0 338L20 338C40 338 80 338 120 340C160 342 200 346 240 343.7C280 341.3 320 332.7 360 325.5C400 318.3 440 312.7 480 309.3C520 306 560 305 600 306.8C640 308.7 680 313.3 720 324.2C760 335 800 352 840 359.2C880 366.3 920 363.7 940 362.3L960 361L960 541L940 541C920 541 880 541 840 541C800 541 760 541 720 541C680 541 640 541 600 541C560 541 520 541 480 541C440 541 400 541 360 541C320 541 280 541 240 541C200 541 160 541 120 541C80 541 40 541 20 541L0 541Z" fill="#f7770f"></path><path d="M0 333L20 341.5C40 350 80 367 120 371C160 375 200 366 240 361.2C280 356.3 320 355.7 360 360.3C400 365 440 375 480 377.3C520 379.7 560 374.3 600 365.5C640 356.7 680 344.3 720 348C760 351.7 800 371.3 840 380.8C880 390.3 920 389.7 940 389.3L960 389L960 541L940 541C920 541 880 541 840 541C800 541 760 541 720 541C680 541 640 541 600 541C560 541 520 541 480 541C440 541 400 541 360 541C320 541 280 541 240 541C200 541 160 541 120 541C80 541 40 541 20 541L0 541Z" fill="#d5670c"></path><path d="M0 394L20 391.7C40 389.3 80 384.7 120 381.3C160 378 200 376 240 376.8C280 377.7 320 381.3 360 381.7C400 382 440 379 480 377.8C520 376.7 560 377.3 600 375C640 372.7 680 367.3 720 372.8C760 378.3 800 394.7 840 396C880 397.3 920 383.7 940 376.8L960 370L960 541L940 541C920 541 880 541 840 541C800 541 760 541 720 541C680 541 640 541 600 541C560 541 520 541 480 541C440 541 400 541 360 541C320 541 280 541 240 541C200 541 160 541 120 541C80 541 40 541 20 541L0 541Z" fill="#b5570a"></path><path d="M0 410L20 408.3C40 406.7 80 403.3 120 406.7C160 410 200 420 240 425.7C280 431.3 320 432.7 360 434.5C400 436.3 440 438.7 480 433.7C520 428.7 560 416.3 600 414.2C640 412 680 420 720 419.3C760 418.7 800 409.3 840 405C880 400.7 920 401.3 940 401.7L960 402L960 541L940 541C920 541 880 541 840 541C800 541 760 541 720 541C680 541 640 541 600 541C560 541 520 541 480 541C440 541 400 541 360 541C320 541 280 541 240 541C200 541 160 541 120 541C80 541 40 541 20 541L0 541Z" fill="#954708"></path><path d="M0 467L20 463.3C40 459.7 80 452.3 120 453.7C160 455 200 465 240 469C280 473 320 471 360 471.2C400 471.3 440 473.7 480 471.8C520 470 560 464 600 464.7C640 465.3 680 472.7 720 476.7C760 480.7 800 481.3 840 480.5C880 479.7 920 477.3 940 476.2L960 475L960 541L940 541C920 541 880 541 840 541C800 541 760 541 720 541C680 541 640 541 600 541C560 541 520 541 480 541C440 541 400 541 360 541C320 541 280 541 240 541C200 541 160 541 120 541C80 541 40 541 20 541L0 541Z" fill="#773806"></path><path d="M0 486L20 488C40 490 80 494 120 497C160 500 200 502 240 500.5C280 499 320 494 360 495C400 496 440 503 480 502.7C520 502.3 560 494.7 600 491.8C640 489 680 491 720 489.5C760 488 800 483 840 483.7C880 484.3 920 490.7 940 493.8L960 497L960 541L940 541C920 541 880 541 840 541C800 541 760 541 720 541C680 541 640 541 600 541C560 541 520 541 480 541C440 541 400 541 360 541C320 541 280 541 240 541C200 541 160 541 120 541C80 541 40 541 20 541L0 541Z" fill="#5a2a03"></path></svg>